<?xml version="1.0" encoding="UTF-8"?>
<svg xmlns="http://www.w3.org/2000/svg" viewBox="0 0 1200 160">
  <defs>
    <style>
      .cls-1, .cls-2 {
        stroke: #fff200;
        stroke-width: .88px;
      }

      .cls-1, .cls-2, .cls-3, .cls-4, .cls-5, .cls-6 {
        stroke-miterlimit: 10;
      }

      .cls-1, .cls-2, .cls-3, .cls-4, .cls-6 {
        fill: none;
      }

      .cls-7 {
        fill: #5894f4;
      }

      .cls-8 {
        stroke-linejoin: round;
        stroke-width: 6.67px;
      }

      .cls-8, .cls-9, .cls-5 {
        fill: #414042;
      }

      .cls-8, .cls-5 {
        stroke: #f9f9f9;
      }

      .cls-2 {
        stroke-linecap: round;
      }

      .cls-3 {
        stroke: #d1d3d4;
        stroke-width: 2.97px;
      }

      .cls-10 {
        fill: #f9f9f9;
      }

      .cls-11 {
        fill: #bcbec0;
      }

      .cls-12 {
        fill: #231f20;
      }

      .cls-13 {
        fill: #58595b;
      }

      .cls-4 {
        stroke: #414042;
        stroke-width: 2.22px;
      }

      .cls-5 {
        stroke-width: 6.79px;
      }

      .cls-6 {
        stroke: #231f20;
        stroke-width: 1.48px;
      }
    </style>
  </defs>
  <g id="Layer_1" data-name="Layer 1">
    <circle class="cls-7" cx="80.69" cy="80" r="78.79"/>
    <g>
      <g>
        <line class="cls-2" x1="139.35" y1="89.14" x2="129.44" y2="87.59"/>
        <line class="cls-1" x1="135.73" y1="92.71" x2="126.23" y2="90.53"/>
        <line class="cls-1" x1="129.26" y1="95.2" x2="125.4" y2="94"/>
        <line class="cls-1" x1="126.5" y1="98.27" x2="124.49" y2="97.47"/>
        <line class="cls-1" x1="129.49" y1="103.91" x2="122.81" y2="100.64"/>
        <line class="cls-1" x1="131.22" y1="109.73" x2="121.89" y2="104.24"/>
        <line class="cls-1" x1="129.82" y1="114.2" x2="123.76" y2="109.98"/>
        <line class="cls-1" x1="126.57" y1="117.43" x2="125.39" y2="116.47"/>
        <line class="cls-1" x1="124.36" y1="121.55" x2="120.58" y2="117.94"/>
        <path class="cls-11" d="M129.33,102.34c-1.08-1.77-2.18-3.4-2.82-5-.29-.79-.6-1.62-.71-2.46-.11-.84-.06-1.7.23-2.63.21-.59.4-1.12.64-1.62.25-.49.56-.92.92-1.33.72-.8,1.66-1.46,2.71-2.07-.44-.07-.88-.13-1.31-.2-.94.61-1.76,1.28-2.41,2.09-.32.4-.6.84-.83,1.32-.11.24-.21.49-.3.76-.09.26-.21.53-.3.81-.31,1.01-.37,1.95-.24,2.87.06.46.18.92.3,1.36.1.44.25.87.42,1.3.69,1.73,1.85,3.47,2.94,5.28.99,1.74,1.88,3.53,2.22,5.44.4,1.94.02,3.89-1.36,5.92l.75.52c.78-1.15,1.27-2.28,1.54-3.37.24-1.1.17-2.22,0-3.26-.18-1.04-.51-2.04-.92-2.99-.2-.48-.43-.94-.66-1.4-.26-.47-.53-.93-.81-1.38Z"/>
        <path class="cls-10" d="M120.75,124.82c.83-.38,1.58-1,2.35-1.75.97-.99,1.7-1.97,2.12-3.03.4-1.08.58-2.15.59-3.2.02-1.05-.12-2.08-.34-3.09-.24-1.01-.62-2.04-.98-3.02-.73-1.93-1.49-3.71-1.83-5.4-.44-1.76-.45-3.39.46-5.09.73-1.78,2.03-2.8,3.67-3.56,1.51-.81,3.38-1.33,5.34-1.98.8-.27,1.62-.55,2.42-.89.79-.34,1.5-.74,2.2-1.21,1.39-.94,2.61-2.19,3.45-3.92-.31-.04-.63-.09-.95-.14-.77,1.45-1.87,2.51-3.14,3.34-1.28.82-2.67,1.43-4.25,1.94-1.99.67-3.99,1.24-5.62,2.12-1.67.87-3.18,1.94-3.95,3.9-1.02,1.84-.93,3.67-.54,5.52.35,1.82,1.16,3.73,1.89,5.7.18.48.36.98.51,1.46.14.47.27.95.37,1.43.21.95.35,1.92.34,2.88-.01.97-.16,1.94-.51,2.9-.41.91-1.03,1.81-1.9,2.67-.77.74-1.52,1.34-2.35,1.68.21.23.42.47.65.72Z"/>
        <path class="cls-11" d="M113.96,117.32c1.38.22,2.76.49,4.27.79,1.02.19,2.06.37,3.12.46.53.04,1.06.07,1.6.06.53-.01,1.03-.09,1.54-.19,1.02-.2,2.03-.56,3.01-1.15.49-.29.97-.64,1.44-1.05.45-.43.84-.94,1.24-1.51l-.75-.52c-.34.51-.71.95-1.09,1.34-.41.37-.84.67-1.28.93-.88.52-1.8.84-2.74,1.02-1.84.39-3.9.08-5.91-.29-1.85-.35-3.61-.71-5.34-.87.3.33.6.66.89.98Z"/>
      </g>
      <g>
        <line class="cls-2" x1="119.74" y1="124.69" x2="113.15" y2="117.14"/>
        <line class="cls-1" x1="114.7" y1="125.13" x2="108.83" y2="117.35"/>
        <line class="cls-1" x1="108.14" y1="122.87" x2="105.96" y2="119.47"/>
        <line class="cls-1" x1="104.03" y1="123.43" x2="103.01" y2="121.53"/>
        <line class="cls-1" x1="102.69" y1="129.64" x2="99.67" y2="122.85"/>
        <line class="cls-1" x1="100.29" y1="135.25" x2="96.67" y2="125.06"/>
        <line class="cls-1" x1="96.36" y1="137.81" x2="94.43" y2="130.68"/>
        <line class="cls-1" x1="91.78" y1="138.17" x2="91.5" y2="136.68"/>
        <line class="cls-1" x1="87.44" y1="139.88" x2="86.86" y2="134.69"/>
        <path class="cls-11" d="M103.6,128.39c.33-2.02.5-4.03,1.03-5.68.25-.85.63-1.55,1.07-2.29.45-.73,1.04-1.37,1.84-1.91.51-.35,1.05-.58,1.56-.79.5-.22,1.01-.36,1.54-.44,1.06-.16,2.19-.07,3.39.13-.3-.34-.59-.67-.88-.99-1.1-.13-2.16-.14-3.17.07-.5.1-.99.26-1.47.49-.48.22-1.01.44-1.49.78-.88.59-1.52,1.29-2,2.09-.52.75-.91,1.55-1.19,2.46-.58,1.78-.76,3.95-1.15,5.92-.36,1.98-.81,3.95-1.76,5.67-.97,1.66-2.51,2.93-4.85,3.67l.24.88c1.32-.41,2.42-.98,3.32-1.67.9-.68,1.6-1.47,2.11-2.43,1.05-1.86,1.51-3.95,1.86-5.95Z"/>
        <path class="cls-10" d="M82.56,140.05c.44.12.91.2,1.4.26.49.06,1,0,1.53-.04,2.76-.3,4.73-1.34,6.09-3.04,1.37-1.64,2.22-3.55,2.92-5.5.67-1.97,1.22-3.87,2.04-5.39.21-.38.43-.74.67-1.07.24-.35.49-.7.78-1.01.58-.63,1.27-1.14,2.17-1.51,3.44-1.66,6.67.14,10.48,1.58,1.55.59,3.25,1.24,4.91,1.4,1.66.16,3.39-.02,5.14-.83-.21-.24-.43-.47-.64-.72-3.05,1.24-6,.52-9.05-.71-1.96-.77-3.81-1.54-5.65-1.97-.94-.24-1.86-.37-2.77-.31-.92.04-1.79.36-2.78.72-1.94.81-3.04,2.31-3.96,3.89-.9,1.63-1.48,3.71-2.2,5.63-.71,1.87-1.52,3.71-2.77,5.21-.31.37-.65.73-1.03,1.06-.38.29-.79.55-1.24.78-.9.45-1.95.76-3.17.89-.53.05-1.04.09-1.52.02-.48-.07-.94-.17-1.37-.3.01.31.02.63.03.96Z"/>
        <path class="cls-11" d="M82.19,129.95c.46.52.91,1.09,1.37,1.68.45.55.92,1.13,1.4,1.72,1.31,1.58,2.75,3.17,4.59,4.29,1.82,1,4.05,1.46,6.75.82l-.24-.88c-2.39.58-4.38.13-6.03-.76-1.67-.97-3.06-2.52-4.36-4.06-.59-.71-1.18-1.42-1.75-2.1-.58-.67-1.17-1.42-1.78-2.03.02.45.03.89.05,1.33Z"/>
      </g>
      <g>
        <line class="cls-2" x1="81.88" y1="139.32" x2="81.69" y2="129.29"/>
        <line class="cls-1" x1="77.73" y1="136.42" x2="78.25" y2="126.69"/>
        <line class="cls-1" x1="74.16" y1="130.49" x2="74.68" y2="126.48"/>
        <line class="cls-1" x1="70.66" y1="128.26" x2="71.1" y2="126.15"/>
        <line class="cls-1" x1="65.63" y1="132.16" x2="67.69" y2="125.01"/>
        <line class="cls-1" x1="60.19" y1="134.92" x2="63.97" y2="124.78"/>
        <line class="cls-1" x1="55.54" y1="134.35" x2="58.64" y2="127.64"/>
        <line class="cls-1" x1="51.8" y1="131.68" x2="52.54" y2="130.36"/>
        <line class="cls-1" x1="47.37" y1="130.21" x2="50.26" y2="125.86"/>
        <path class="cls-11" d="M67.14,131.79c1.54-1.31,2.97-2.77,4.44-3.7.74-.48,1.49-.83,2.29-1.03.81-.28,1.68-.4,2.64-.31,2.46.33,4.09,1.46,5.67,3.32-.01-.45-.02-.89-.03-1.32-1.53-1.62-3.19-2.58-5.55-2.9-1.05-.11-2,.06-2.88.32-.87.21-1.7.61-2.5,1.12-1.6,1.01-3.13,2.54-4.69,3.8-1.55,1.29-3.16,2.51-4.99,3.22-1.81.66-3.8.63-6.07-.31l-.39.83c1.28.54,2.49.81,3.61.86.56.03,1.11,0,1.63-.07.53-.08,1.05-.26,1.55-.44,2-.75,3.7-2.06,5.26-3.37Z"/>
        <path class="cls-10" d="M43.52,127.21c.26.37.56.74.9,1.1.35.34.76.64,1.2.95,1.15.78,2.28,1.27,3.37,1.54.54.15,1.09.21,1.64.19.55,0,1.08-.06,1.61-.15,2.1-.37,3.97-1.27,5.77-2.34,1.78-1.08,3.42-2.17,5.03-2.81.4-.16.8-.29,1.21-.39.41-.13.83-.23,1.25-.28.84-.11,1.71-.06,2.63.23.91.32,1.7.66,2.38,1.14.68.49,1.25,1.12,1.77,1.84,1.03,1.5,1.88,3.18,2.86,4.97.81,1.47,1.7,2.96,2.86,4.25,1.16,1.22,2.61,2.14,4.46,2.63-.01-.32-.02-.64-.03-.96-1.56-.47-2.8-1.34-3.83-2.42-1.03-1.12-1.86-2.54-2.64-3.93-.5-.9-1-1.81-1.48-2.68-.5-.85-1.01-1.66-1.58-2.47-.57-.78-1.19-1.47-1.93-2-.74-.54-1.6-.88-2.6-1.24-2-.63-3.81-.17-5.54.44-1.74.68-3.5,1.87-5.3,2.91-3.45,1.91-7.34,3.68-11.38.8-.44-.31-.85-.61-1.18-.95-.33-.36-.61-.73-.86-1.11-.19.25-.39.5-.59.76Z"/>
        <path class="cls-11" d="M49.73,119.23c.02.7,0,1.42-.03,2.17,0,.71-.02,1.46-.03,2.21-.02,2.05.06,4.2.76,6.24.77,1.9,2.16,3.74,4.65,4.95l.39-.83c-2.21-1.07-3.44-2.72-4.14-4.46-.67-1.79-.72-3.89-.73-5.9,0-1.85.06-3.65-.05-5.43-.27.35-.55.7-.81,1.05Z"/>
      </g>
      <g>
        <line class="cls-2" x1="43.47" y1="126.2" x2="49.76" y2="118.4"/>
        <line class="cls-1" x1="42.16" y1="121.31" x2="48.81" y2="114.19"/>
        <line class="cls-1" x1="43.22" y1="114.49" x2="46.2" y2="111.76"/>
        <line class="cls-1" x1="41.98" y1="110.53" x2="43.67" y2="109.2"/>
        <line class="cls-1" x1="35.63" y1="110.27" x2="41.81" y2="106.12"/>
        <line class="cls-1" x1="29.72" y1="108.88" x2="39.13" y2="103.54"/>
        <line class="cls-1" x1="26.49" y1="105.47" x2="33.17" y2="102.32"/>
        <line class="cls-1" x1="25.31" y1="101.03" x2="26.73" y2="100.49"/>
        <line class="cls-1" x1="22.89" y1="97.05" x2="27.9" y2="95.57"/>
        <path class="cls-11" d="M37.04,110.94c1.99.02,4.01-.17,5.75.05.88.11,1.69.31,2.44.67.75.36,1.53.78,2.2,1.48,1.68,1.81,2.18,3.76,2.21,6.18.28-.35.55-.7.83-1.03-.14-2.22-.78-4.04-2.39-5.79-1.54-1.44-3.14-2.11-5.04-2.35-.94-.12-1.97-.12-2.97-.13-.99-.02-2.01,0-3.04,0-2.01-.01-4.11-.06-5.89-.74-.88-.35-1.72-.83-2.48-1.5-.38-.33-.74-.72-1.08-1.15-.35-.43-.66-.92-.89-1.49l-.83.39c.25.65.62,1.19,1,1.68.38.49.79.92,1.21,1.3.85.76,1.77,1.3,2.73,1.68,2.03.7,4.19.78,6.24.77Z"/>
        <path class="cls-10" d="M21.89,92.27c-.05.91.01,1.89.24,2.94.83,2.65,2.24,4.4,4.07,5.46,1.87,1.06,3.96,1.53,5.97,1.9.97.19,1.99.31,2.96.47.96.16,1.87.34,2.71.6.84.26,1.58.62,2.27,1.1.73.45,1.37,1.04,1.91,1.84,1.02,1.65,1.39,3.17,1.25,4.96-.06.88-.23,1.81-.44,2.77-.18.91-.38,1.89-.58,2.88-.32,1.64-.6,3.35-.53,5.08.09,1.7.62,3.32,1.73,4.89.2-.25.39-.5.59-.76-.9-1.36-1.29-2.82-1.39-4.31-.06-1.54.21-3.14.5-4.71.4-2.04.81-3.97.98-5.92.06-.96.02-1.88-.21-2.75-.26-.85-.58-1.76-1.16-2.64-.58-.88-1.31-1.51-2.08-2.02-.72-.54-1.55-.92-2.45-1.21-.9-.29-1.88-.49-2.9-.66-.97-.17-1.99-.35-3-.53-1.99-.37-3.96-.83-5.68-1.79-1.59-1-2.92-2.53-3.63-4.88-.22-1.05-.27-2.01-.18-2.91-.31.07-.62.13-.94.2Z"/>
        <path class="cls-11" d="M31.77,90.14c-.84,1.08-1.87,2.16-2.91,3.33-1.31,1.56-2.6,3.25-3.34,5.25-.19.5-.34,1.02-.45,1.56-.09.53-.1,1.07-.08,1.63.06,1.13.33,2.33.87,3.6l.83-.39c-.48-1.13-.72-2.2-.76-3.2-.04-1.01.08-1.94.46-2.87.7-1.83,1.91-3.44,3.19-4.98.29-.35.59-.7.88-1.05.32-.36.63-.71.93-1.05.61-.7,1.18-1.4,1.67-2.11-.44.09-.87.19-1.3.28Z"/>
      </g>
      <g>
        <line class="cls-2" x1="22.47" y1="91.47" x2="32.31" y2="89.53"/>
        <line class="cls-1" x1="24.64" y1="86.87" x2="34.31" y2="85.69"/>
        <line class="cls-1" x1="29.82" y1="82.34" x2="33.86" y2="82.16"/>
        <line class="cls-1" x1="31.38" y1="78.51" x2="33.54" y2="78.57"/>
        <line class="cls-1" x1="26.72" y1="74.22" x2="34.12" y2="75.02"/>
        <line class="cls-1" x1="23.1" y1="69.36" x2="33.74" y2="71.32"/>
        <line class="cls-1" x1="22.81" y1="64.67" x2="29.95" y2="66.55"/>
        <line class="cls-1" x1="24.75" y1="60.52" x2="26.19" y2="61.02"/>
        <line class="cls-1" x1="25.46" y1="55.9" x2="30.25" y2="57.99"/>
        <path class="cls-11" d="M27.39,75.64c.78.64,1.55,1.28,2.28,1.87.71.61,1.48,1.22,2.07,1.87.61.64,1.12,1.32,1.47,2.08.18.38.32.77.41,1.2.12.42.24.87.29,1.35.14,1.23-.08,2.3-.54,3.3-.39.99-.97,1.92-1.72,2.85.44-.09.87-.18,1.3-.26.64-.89,1.11-1.79,1.44-2.76.38-.98.56-2.02.43-3.2-.28-4.13-3.71-6.32-6.85-9-3.2-2.6-5.94-5.57-4.79-10.38l-.88-.24c-.1.33-.19.65-.24.98-.04.32-.06.64-.07.95-.02.62.02,1.21.1,1.77.17,1.12.53,2.13,1.02,3.04,1.03,1.83,2.71,3.29,4.28,4.6Z"/>
        <path class="cls-10" d="M27.76,51.6c-.62.66-1.22,1.45-1.7,2.41-.54,1.28-.81,2.49-.87,3.62-.04,1.14.06,2.16.47,3.18.75,2.01,2.05,3.72,3.36,5.29.32.38.65.76.96,1.14.34.38.67.76,1,1.12.64.74,1.23,1.47,1.7,2.21.47.74.83,1.5,1.03,2.3.22.81.38,1.68.28,2.64-.09.96-.38,1.79-.8,2.54-.34.75-.84,1.42-1.44,2.06-.6.64-1.31,1.24-2.08,1.84-.77.6-1.61,1.21-2.36,1.84-1.28,1.04-2.57,2.18-3.61,3.55-.51.68-1,1.43-1.3,2.23-.29.8-.48,1.68-.54,2.63.31-.07.62-.13.94-.2.22-3.23,2.68-5.47,5.09-7.48.81-.65,1.55-1.28,2.37-1.92.81-.64,1.57-1.29,2.22-1.98.65-.69,1.19-1.42,1.57-2.24.39-.82.76-1.72.84-2.77.05-.53.04-1.02-.02-1.5-.07-.48-.17-.94-.26-1.38-.21-.88-.61-1.7-1.12-2.51-.51-.8-1.13-1.59-1.81-2.37-.63-.75-1.29-1.55-1.95-2.34-1.28-1.56-2.5-3.18-3.21-5.02-.59-1.79-.6-3.81.35-6.07.48-.96,1.09-1.72,1.73-2.35-.28-.15-.56-.3-.85-.45Z"/>
        <path class="cls-11" d="M36.69,56.32c-1.34.29-2.85.44-4.36.68-2,.35-4.08.82-5.94,1.87-.46.26-.91.56-1.34.9-.4.35-.76.76-1.1,1.2-.68.9-1.25,2-1.65,3.32l.88.24c.35-1.17.86-2.15,1.47-2.95.62-.8,1.3-1.44,2.19-1.9,1.71-.95,3.68-1.41,5.66-1.77,1.76-.35,3.73-.52,5.37-.99-.4-.21-.79-.42-1.17-.62Z"/>
      </g>
      <g>
        <line class="cls-2" x1="28.72" y1="51.36" x2="37.5" y2="56.2"/>
        <line class="cls-1" x1="33.33" y1="49.23" x2="41.5" y2="54.55"/>
        <line class="cls-1" x1="40.22" y1="49.09" x2="43.43" y2="51.54"/>
        <line class="cls-1" x1="43.87" y1="47.15" x2="45.48" y2="48.59"/>
        <line class="cls-1" x1="43.05" y1="40.87" x2="48.21" y2="46.24"/>
        <line class="cls-1" x1="43.42" y1="34.82" x2="50.3" y2="43.16"/>
        <line class="cls-1" x1="46.22" y1="31.06" x2="50.48" y2="37.11"/>
        <line class="cls-1" x1="50.36" y1="29.11" x2="51.14" y2="30.42"/>
        <line class="cls-1" x1="53.86" y1="26.02" x2="56.19" y2="30.69"/>
        <path class="cls-11" d="M42.65,42.39c.38,2.01.78,3.85.93,5.66.06.89,0,1.73-.2,2.54-.11.4-.26.8-.46,1.18-.17.41-.37.82-.64,1.22-.69,1.03-1.54,1.7-2.54,2.18-.91.53-1.97.85-3.14,1.08.39.21.78.43,1.16.63,1.06-.27,2.02-.64,2.87-1.19.93-.5,1.73-1.19,2.4-2.18,2.43-3.36,1.22-7.22.53-11.3-.37-2.02-.66-4.07-.27-5.92.18-.94.5-1.85,1.02-2.73.26-.44.56-.87.93-1.28.39-.38.84-.74,1.34-1.09l-.52-.75c-.57.39-1.08.79-1.51,1.23-.41.47-.76.95-1.05,1.44-.59.98-.95,1.99-1.16,3.01-.1.51-.17,1.01-.19,1.54,0,.54.01,1.07.05,1.6.08,1.06.26,2.11.45,3.12Z"/>
        <path class="cls-10" d="M58.39,24.21c-.9.12-1.84.37-2.83.79-1.3.5-2.23,1.35-3,2.18-.76.85-1.3,1.77-1.69,2.73-.74,1.98-.81,4.18-.81,6.23,0,1.01.01,2.01.02,2.95.02.98,0,1.92-.11,2.8-.21,1.77-.86,3.21-2.18,4.63-.68.68-1.43,1.14-2.23,1.44-.75.35-1.56.55-2.43.65-.87.1-1.8.1-2.78.07-.98-.04-2-.1-2.99-.1-1.65-.02-3.37.02-5.05.39-1.72.35-3.22,1.15-4.53,2.54.28.15.56.3.85.45,2.26-2.32,5.55-2.48,8.71-2.45,1.03.02,2.06.03,3.05.05,1.03.03,2.03.02,2.97-.09.94-.11,1.83-.32,2.64-.71.85-.36,1.68-.83,2.42-1.58,1.43-1.55,2.16-3.1,2.38-5.03.21-1.94.17-3.92.17-6-.03-4.1.49-8.16,4.95-10.3.98-.42,1.92-.65,2.81-.73-.12-.29-.24-.59-.36-.89Z"/>
        <path class="cls-11" d="M62.21,33.57c-1.21-.63-2.45-1.43-3.77-2.24-1.82-1.14-3.66-2.02-5.76-2.4-1.04-.17-2.14-.23-3.26,0-1.09.26-2.22.75-3.37,1.53l.52.75c1.02-.69,2.02-1.12,2.99-1.35.96-.25,1.99-.15,2.93,0,1.91.36,3.68,1.22,5.44,2.24,1.63.98,3.2,2.01,4.76,2.7-.17-.41-.34-.83-.5-1.23Z"/>
      </g>
      <g>
        <line class="cls-2" x1="59.28" y1="24.64" x2="62.9" y2="33.99"/>
        <line class="cls-1" x1="64.19" y1="25.99" x2="67.04" y2="35.31"/>
        <line class="cls-1" x1="69.57" y1="30.33" x2="70.45" y2="34.27"/>
        <line class="cls-1" x1="73.6" y1="31.17" x2="73.91" y2="33.31"/>
        <line class="cls-1" x1="77.01" y1="25.79" x2="77.5" y2="33.22"/>
        <line class="cls-1" x1="81.18" y1="21.42" x2="81.08" y2="32.24"/>
        <line class="cls-1" x1="85.75" y1="20.37" x2="85.12" y2="27.73"/>
        <line class="cls-1" x1="90.17" y1="21.54" x2="89.92" y2="23.04"/>
        <line class="cls-1" x1="94.84" y1="21.39" x2="93.62" y2="26.47"/>
        <path class="cls-11" d="M75.73,26.73c-1,1.81-1.87,3.52-2.93,4.9-1.05,1.48-2.3,2.52-4.17,2.95-1.18.38-2.26.37-3.32.12-.53-.12-1.06-.33-1.58-.53-.51-.19-1.02-.43-1.54-.71.16.42.33.83.49,1.23.49.22.98.42,1.46.57.49.16,1.01.33,1.52.42,1.03.18,2.08.15,3.21-.21,2.05-.45,3.4-1.65,4.55-3.19,1.16-1.44,2.09-3.29,3.12-5.11,1.01-1.85,2.12-3.43,3.6-4.67.74-.61,1.58-1.12,2.54-1.47.96-.36,2.04-.4,3.26-.3l.08-.91c-2.76-.34-4.88.65-6.5,1.96-.81.66-1.51,1.42-2.13,2.25-.62.88-1.16,1.8-1.66,2.72Z"/>
        <path class="cls-10" d="M99.47,22.93c-.76-.48-1.65-.9-2.68-1.21-1.32-.45-2.57-.41-3.69-.25-1.13.17-2.14.53-3.05,1.02-.91.46-1.74,1.16-2.51,1.9-.76.74-1.46,1.54-2.12,2.34-1.31,1.59-2.47,3.03-3.76,4.31-.65.61-1.33,1.12-2.09,1.48-.76.36-1.59.51-2.55.66-.96.11-1.82,0-2.63-.27-.4-.13-.79-.31-1.18-.52-.38-.18-.75-.38-1.11-.61-1.46-.93-2.85-2.32-4.4-3.71-1.27-1.15-2.59-2.14-4.11-2.92-1.51-.73-3.25-1.3-5.11-.98.12.29.24.59.36.89,1.59-.2,3.09.3,4.44,1,1.36.71,2.6,1.68,3.8,2.68,1.57,1.37,3.08,2.87,4.65,3.86,1.57.93,3.26,1.74,5.35,1.49,1.04-.17,1.96-.3,2.78-.71.83-.39,1.57-.94,2.27-1.61.71-.69,1.37-1.34,2.02-2.11.64-.76,1.31-1.56,1.97-2.35,1.32-1.56,2.72-3.13,4.38-3.99.84-.46,1.75-.79,2.75-.95,1.01-.16,2.11-.17,3.28.23,1.02.31,1.89.74,2.62,1.24.1-.3.19-.6.3-.92Z"/>
        <path class="cls-11" d="M96.38,32.55c-.52-1.25-.95-2.67-1.45-4.13-.66-2.04-1.5-3.92-2.86-5.54-.68-.8-1.5-1.52-2.49-2.1-1-.53-2.18-.84-3.56-.98l-.08.91c1.22.11,2.27.42,3.16.86.89.51,1.62,1.18,2.24,1.91,1.24,1.5,2.04,3.27,2.73,5.21.62,1.8,1.16,3.59,1.91,5.13.14-.43.27-.85.4-1.26Z"/>
      </g>
      <g>
        <line class="cls-2" x1="99.87" y1="23.83" x2="96.64" y2="33.32"/>
        <line class="cls-1" x1="102.76" y1="28.02" x2="98.96" y2="36.99"/>
        <line class="cls-1" x1="104.1" y1="34.79" x2="102.24" y2="38.38"/>
        <line class="cls-1" x1="106.65" y1="38.03" x2="105.52" y2="39.87"/>
        <line class="cls-1" x1="112.71" y1="36.11" x2="108.32" y2="42.11"/>
        <line class="cls-1" x1="118.73" y1="35.43" x2="111.7" y2="43.66"/>
        <line class="cls-1" x1="122.9" y1="37.56" x2="117.68" y2="42.8"/>
        <line class="cls-1" x1="125.52" y1="41.32" x2="124.37" y2="42.31"/>
        <line class="cls-1" x1="129.21" y1="44.19" x2="125.01" y2="47.29"/>
        <path class="cls-11" d="M111.13,36c-1.93.75-3.68,1.47-5.39,1.88-1.76.46-3.36.43-5.09-.42-1.14-.47-1.97-1.17-2.62-2.05-.33-.43-.6-.94-.87-1.42-.27-.48-.5-.99-.73-1.53-.14.42-.28.84-.42,1.26.23.49.48.95.76,1.37.28.43.56.9.9,1.29.67.8,1.49,1.46,2.59,1.91,1.87.94,3.65.94,5.54.47,1.81-.35,3.71-1.17,5.67-1.9,1.96-.77,3.83-1.27,5.76-1.27.96,0,1.93.16,2.9.5.95.36,1.82,1.01,2.7,1.87l.65-.64c-.49-.49-.99-.91-1.49-1.26-.49-.36-1.01-.64-1.56-.83-1.08-.4-2.15-.57-3.19-.59-1.05-.01-2.07.12-3.08.36-1.04.28-2.04.64-3.02,1.01Z"/>
        <path class="cls-10" d="M131.78,48.34c-.28-.85-.71-1.73-1.31-2.62-.39-.57-.8-1.08-1.22-1.52-.42-.44-.94-.77-1.42-1.07-.98-.59-1.99-.96-3.01-1.17-2-.46-4.23-.09-6.26.26-4.01.68-7.53,1.83-10.59-.45-3.11-2.23-3.26-5.74-3.84-9.91-.25-1.67-.61-3.3-1.28-4.87-.68-1.54-1.66-3.09-3.28-4.04-.1.3-.2.61-.3.91,1.35.87,2.18,2.2,2.76,3.62.59,1.42.91,2.96,1.19,4.51.34,2.03.51,4.17,1.08,5.94.6,1.73,1.39,3.41,3.14,4.58.9.55,1.7,1.02,2.6,1.24.88.23,1.81.28,2.78.23,1.9-.08,3.86-.47,5.93-.85,1.01-.18,2.03-.33,3.04-.41.97-.04,1.93,0,2.87.19,1.85.38,3.76,1.25,5.07,3.34.6.89,1,1.76,1.24,2.62.26-.17.54-.34.82-.51Z"/>
        <path class="cls-11" d="M123.23,53.72c.39-1.29.96-2.64,1.51-4.07.37-.97.74-1.98,1.01-3.01.26-1.02.38-2.03.38-3.08-.01-1.05-.18-2.12-.58-3.19-.18-.55-.46-1.07-.82-1.56-.35-.5-.77-1-1.26-1.49l-.65.64c.85.88,1.5,1.75,1.86,2.7.34.97.49,1.93.49,2.9,0,1.93-.52,3.8-1.29,5.76-.67,1.76-1.39,3.48-1.79,5.12.38-.24.75-.48,1.12-.71Z"/>
      </g>
      <g>
        <line class="cls-2" x1="131.52" y1="49.28" x2="122.94" y2="54.47"/>
        <line class="cls-1" x1="131.02" y1="54.36" x2="122.34" y2="58.79"/>
        <line class="cls-1" x1="127.67" y1="60.42" x2="123.94" y2="61.98"/>
        <line class="cls-1" x1="127.53" y1="64.55" x2="125.48" y2="65.23"/>
        <line class="cls-1" x1="133.43" y1="66.95" x2="126.22" y2="68.74"/>
        <line class="cls-1" x1="138.52" y1="70.3" x2="127.84" y2="72.09"/>
        <line class="cls-1" x1="140.31" y1="74.62" x2="132.95" y2="75.28"/>
        <line class="cls-1" x1="139.89" y1="79.18" x2="138.37" y2="79.2"/>
        <line class="cls-1" x1="140.85" y1="83.76" x2="135.64" y2="83.43"/>
        <path class="cls-11" d="M132.32,65.85c-1.97-.66-3.86-1.2-5.38-2.01-.73-.42-1.49-.86-2.12-1.43-.63-.57-1.14-1.27-1.51-2.16-.22-.58-.44-1.11-.56-1.64-.12-.53-.16-1.07-.14-1.61.03-1.07.38-2.21.72-3.31-.38.23-.76.46-1.13.69-.25,1.03-.51,2.11-.48,3.13,0,.52.07,1.03.2,1.55.13.51.35,1.02.56,1.58.41.97.97,1.73,1.65,2.36.34.32.73.58,1.1.85.36.27.75.51,1.16.73,1.64.88,3.67,1.47,5.65,2.16,1.87.7,3.71,1.5,5.21,2.74,1.57,1.23,2.49,2.97,2.76,5.41l.91-.08c-.14-1.38-.5-2.56-1-3.57-.49-1.01-1.29-1.81-2.08-2.5-.81-.68-1.71-1.23-2.63-1.7-.93-.46-1.87-.85-2.9-1.18Z"/>
        <path class="cls-10" d="M140.2,88.59c.32-.84.55-1.78.65-2.85.11-1.38.06-2.6-.32-3.68-.39-1.08-.94-2.02-1.6-2.84-.66-.82-1.43-1.52-2.25-2.14-.82-.63-1.79-1.17-2.69-1.68-1.8-1.01-3.54-1.88-4.88-2.96-1.45-1.06-2.54-2.3-2.92-4.19-.57-1.84-.25-3.45.52-5.09.65-1.59,1.74-3.2,2.83-4.95.44-.72.89-1.46,1.28-2.24.37-.76.67-1.53.91-2.34.45-1.61.64-3.39.1-5.21-.27.17-.54.34-.82.51.41,1.56.19,3.12-.24,4.56-.46,1.46-1.12,2.81-2,4.22-1.09,1.8-2.26,3.52-2.94,5.24-.74,1.75-1.17,3.53-.52,5.53.21,1.03.61,1.88,1.16,2.62.53.74,1.29,1.36,1.97,1.96,1.44,1.17,3.29,2.11,5.12,3.15.92.51,1.76,1.05,2.53,1.64.78.59,1.49,1.25,2.11,1.99.61.75,1.12,1.59,1.47,2.55.29.96.37,2.04.26,3.26-.1,1.06-.35,1.99-.7,2.8.31.04.63.09.95.13Z"/>
        <path class="cls-11" d="M130.19,87.21c1.12-.74,2.41-1.4,3.75-2.15.91-.51,1.82-1.04,2.69-1.66.44-.31.86-.63,1.27-.98.37-.35.73-.73,1.05-1.13.65-.81,1.2-1.74,1.57-2.82.19-.54.33-1.11.43-1.73.08-.61.04-1.26-.02-1.95l-.91.08c.06.61.08,1.19.03,1.73-.09.55-.22,1.06-.39,1.54-.34.96-.84,1.8-1.44,2.54-.62.74-1.29,1.39-2.11,1.97-.83.58-1.71,1.11-2.61,1.61-1.63.92-3.28,1.77-4.62,2.78.44.06.88.12,1.31.18Z"/>
      </g>
    </g>
    <g>
      <line class="cls-3" x1="106.39" y1="90.24" x2="62.24" y2="91.62"/>
      <path class="cls-9" d="M102.98,12.91c-.71,2.64-2.12,4.55-3.16,4.27-1.04-.28-1.31-2.64-.6-5.28"/>
      <line class="cls-5" x1="93.1" y1="38.85" x2="55.8" y2="107.04"/>
      <polyline class="cls-8" points="93.41 39.78 100.54 111.93 103.4 140.89"/>
      <ellipse class="cls-13" cx="107.73" cy="90.14" rx="1.34" ry="5.43" transform="translate(-6.34 8.16) rotate(-4.22)"/>
      <line class="cls-6" x1="103.4" y1="140.89" x2="103.99" y2="146.77"/>
      <polygon class="cls-11" points="31.72 151 38.62 145.67 32.48 142.32 31.72 151"/>
      <polygon class="cls-12" points="31.71 151 34.4 148.92 32.01 147.61 31.71 151"/>
      <line class="cls-5" x1="55.8" y1="107.04" x2="35.49" y2="144.17"/>
      <ellipse class="cls-4" cx="96.75" cy="28.27" rx="11.54" ry="10.4" transform="translate(48.26 116.63) rotate(-77.53)"/>
    </g>
  </g>
  <g id="Layer_2" data-name="Layer 2">
    <g>
      <path class="cls-12" d="M177.66,69.48c3.23-4.88,7.52-7.37,13.17-7.37,9.13,0,13.9,4.88,13.9,14.57v30.94h-9.21v-26.74c0-6.26-.57-11.05-7.6-11.05s-8.89,5.14-8.89,11.48v26.31h-9.21v-28.79c0-5.48-1.62-9-7.27-9s-9.21,5.57-9.21,11.23v26.56h-9.21v-44.3h8.73v6.17h.24c3.23-5.06,7.03-7.37,12.85-7.37,4.85,0,9.86,2.23,11.72,7.37Z"/>
      <path class="cls-12" d="M256.06,85.68c0,11.65-5.5,23.14-18.02,23.14-5.25,0-11.15-1.97-13.98-6.94h-.16v22.11h-9.21v-60.67h8.73v6h.16c2.67-5.14,7.6-7.2,12.93-7.2,13.09,0,19.56,10.63,19.56,23.57ZM235.29,101.1c8.33,0,11.56-7.88,11.56-15.6s-3.48-15.68-11.64-15.68c-8.57,0-11.64,7.71-11.64,15.68s3.56,15.6,11.72,15.6Z"/>
      <path class="cls-12" d="M273.28,46.43v61.19h-9.21v-61.19h9.21Z"/>
      <path class="cls-12" d="M292.76,46.43v9.25h-9.21v-9.25h9.21ZM292.76,63.31v44.3h-9.21v-44.3h9.21Z"/>
      <path class="cls-12" d="M340.21,78.14h-9.21c-.73-5.31-4.2-8.31-9.54-8.31-7.11,0-11.48,5.4-11.48,16.11,0,8.57,3.88,15.17,11.07,15.17,5.25,0,8.97-3.43,9.94-10.11h9.21c-1.78,11.65-8.57,17.82-19.16,17.82-12.2,0-20.29-8.74-20.29-22.88s7.44-23.82,20.61-23.82c10.83,0,17.94,5.91,18.83,16.02Z"/>
      <path class="cls-12" d="M387.98,85.42c0,13.8-8,23.39-21.1,23.39s-21.1-9.51-21.1-23.39,8-23.31,21.1-23.31,21.1,9.77,21.1,23.31ZM366.89,101.1c8.16,0,11.88-7.97,11.88-15.68s-3.64-15.6-11.96-15.6-11.8,7.8-11.8,15.6,3.72,15.68,11.88,15.68Z"/>
      <path class="cls-12" d="M432.36,76.85v30.76h-9.21v-27.68c0-5.66-1.86-10.11-8.16-10.11s-10.1,5.66-10.1,11.4v26.39h-9.21v-44.3h8.73v6.51l.16.17c2.99-5.14,7.76-7.88,13.09-7.88,9.62,0,14.71,5.83,14.71,14.74Z"/>
      <path class="cls-12" d="M471.32,46.43c11.56,0,18.67,5.74,18.67,16.54,0,7.71-3.31,13.11-9.54,15.42v.17c5.58.77,8.57,5.66,8.57,13.11,0,8.14,1.13,13.45,3.15,15.94h-10.83c-1.05-1.54-1.54-4.28-1.54-9.08,0-6.68-.97-10.97-2.83-13.03-1.86-2.06-4.61-3.08-8.32-3.08h-15.2v25.19h-10.1v-61.19h27.97ZM470.27,74.28c6.06,0,9.62-3.17,9.62-9.77s-2.91-9.34-9.7-9.34h-16.73v19.11h16.81Z"/>
      <path class="cls-12" d="M537.03,84.65c0,1.11-.08,2.23-.16,3.34h-30.71c0,7.28,3.96,13.11,11.23,13.11,5.09,0,8.49-2.23,10.18-7.37h8.73c-1.86,9.51-9.78,15.08-18.91,15.08-13.17,0-20.45-9.77-20.45-23.22s7.76-23.48,20.21-23.48c11.8,0,19.88,10.28,19.88,22.54ZM527.66,81.57c-.48-6.17-4.28-11.74-10.59-11.74s-10.59,5.23-10.91,11.74h21.5Z"/>
      <path class="cls-12" d="M585.53,85.68c0,11.65-5.5,23.14-18.02,23.14-5.25,0-11.15-1.97-13.98-6.94h-.16v22.11h-9.21v-60.67h8.73v6h.16c2.67-5.14,7.6-7.2,12.93-7.2,13.09,0,19.56,10.63,19.56,23.57ZM564.76,101.1c8.33,0,11.56-7.88,11.56-15.6s-3.48-15.68-11.64-15.68c-8.57,0-11.64,7.71-11.64,15.68s3.56,15.6,11.72,15.6Z"/>
      <path class="cls-12" d="M633.55,85.42c0,13.8-8,23.39-21.1,23.39s-21.1-9.51-21.1-23.39,8-23.31,21.1-23.31,21.1,9.77,21.1,23.31ZM612.45,101.1c8.16,0,11.88-7.97,11.88-15.68s-3.64-15.6-11.96-15.6-11.8,7.8-11.8,15.6,3.72,15.68,11.88,15.68Z"/>
      <path class="cls-12" d="M674.77,75.74h-9.62c-.73-4.03-3.48-5.91-8.49-5.91-4.53,0-7.6,1.63-7.6,4.54,0,3.08,2.51,4.8,10.59,6.43,12.85,2.48,16.49,6.77,16.49,13.62,0,9.25-8,14.4-18.67,14.4s-18.27-5.23-18.51-15.42h9.21c.57,5.23,3.72,7.71,9.46,7.71s9.29-1.71,9.29-5.57c0-3.08-1.86-5.4-13.5-7.54-6.95-1.29-13.58-4.54-13.58-13.2s7.68-12.68,17.46-12.68,16.57,4.8,17.46,13.63Z"/>
      <path class="cls-12" d="M692.64,46.43v9.25h-9.21v-9.25h9.21ZM692.64,63.31v44.3h-9.21v-44.3h9.21Z"/>
      <path class="cls-12" d="M714.62,50.03v13.28h8.32v7.28h-8.32v24.17c0,4.63,1.05,5.57,4.61,5.57,1.7,0,3.39-.17,3.72-.34v7.54c-3.64.43-4.69.51-5.98.51-8.81,0-11.56-3-11.56-11.91v-25.54h-6.95v-7.28h6.95v-13.28h9.21Z"/>
      <path class="cls-12" d="M769.83,85.42c0,13.8-8,23.39-21.1,23.39s-21.1-9.51-21.1-23.39,8-23.31,21.1-23.31,21.1,9.77,21.1,23.31ZM748.73,101.1c8.16,0,11.88-7.97,11.88-15.68s-3.64-15.6-11.96-15.6-11.8,7.8-11.8,15.6,3.72,15.68,11.88,15.68Z"/>
      <path class="cls-12" d="M802,62.37v9.43c-1.37-.26-2.67-.43-3.96-.43-6.87,0-11.32,6.34-11.32,14.83v21.42h-9.21v-44.3h8.65v8.57h.16c1.29-5.66,7.52-9.77,12.2-9.77,1.78,0,2.1,0,3.48.26Z"/>
      <path class="cls-12" d="M811.46,63.31l10.91,33.08h.16l10.59-33.08h9.62l-16.08,46.27c-1.7,5.06-3.31,8.4-4.61,10.28-2.51,3.86-5.74,5.31-10.43,5.31-1.94,0-4.04-.17-6.3-.51v-8.23c1.37.17,2.51.6,4.36.6,2.99,0,4.85-1.37,5.74-4.03l1.78-5.57-15.84-44.13h10.1Z"/>
    </g>
  </g>
</svg>